<svg width="128" height="128" viewBox="0 0 128 128" xmlns="http://www.w3.org/2000/svg" role="img" aria-labelledby="title desc">
  <title id="title">Tameen24 chatbot icon</title>
  <desc id="desc">Transparent green chatbot icon matching the provided design</desc>
  <defs>
    <linearGradient id="g1" x1="0" y1="0" x2="1" y2="1">
      <stop offset="0%" stop-color="#26d55f"/>
      <stop offset="100%" stop-color="#0a8f3d"/>
    </linearGradient>
    <linearGradient id="g2" x1="0" y1="0" x2="1" y2="1">
      <stop offset="0%" stop-color="#27cc59"/>
      <stop offset="100%" stop-color="#0f6f31"/>
    </linearGradient>
  </defs>

  <circle cx="64" cy="64" r="51" fill="none" stroke="url(#g1)" stroke-width="7"/>
  <path d="M13 64c0 12.2 4.7 23.7 12.8 32.2" fill="none" stroke="url(#g2)" stroke-width="7" stroke-linecap="round"/>
  <path d="M115 64c0 12.2-4.7 23.7-12.8 32.2" fill="none" stroke="url(#g2)" stroke-width="7" stroke-linecap="round"/>

  <path d="M51 42h26c8.3 0 15 6.7 15 15v6c0 8.3-6.7 15-15 15H51c-8.3 0-15-6.7-15-15v-6c0-8.3 6.7-15 15-15z" fill="#b7ef67" stroke="#27b04c" stroke-width="4"/>
  <circle cx="52" cy="58" r="6.2" fill="#1ca44a"/>
  <circle cx="76" cy="58" r="6.2" fill="#1ca44a"/>

  <path d="M52 81c6.2 4.2 18.8 4.2 25 0" fill="none" stroke="#16a44a" stroke-width="6" stroke-linecap="round"/>
  <path d="M48 78c0 6.2 8.7 10.4 16 10.4S80 84.2 80 78" fill="none" stroke="#16a44a" stroke-width="4" stroke-linecap="round" opacity="0.9"/>

  <path d="M92 22c13 4 20 14 23 22" fill="none" stroke="#24c956" stroke-width="7" stroke-linecap="round"/>
  <path d="M36 22c-13 4-20 14-23 22" fill="none" stroke="#24c956" stroke-width="7" stroke-linecap="round"/>
</svg>
